<svg xmlns="http://www.w3.org/2000/svg" xmlns:xlink="http://www.w3.org/1999/xlink" width="1080" zoomAndPan="magnify" viewBox="0 0 810 809.999993" height="1080" preserveAspectRatio="xMidYMid meet" version="1.0"><defs><clipPath id="c4a275a8b7"><path d="M 81 81 L 729 81 L 729 729 L 81 729 Z M 81 81 " clip-rule="nonzero"/></clipPath><clipPath id="e906cb8eb6"><path d="M 321 99 L 729 99 L 729 485 L 321 485 Z M 321 99 " clip-rule="nonzero"/></clipPath></defs><g clip-path="url(#c4a275a8b7)"><path fill="#a3f1e9" d="M 729.039062 404.980469 C 729.039062 405.746094 729.039062 406.585938 728.988281 407.367188 C 728.886719 423.324219 727.636719 439.019531 725.238281 454.367188 C 713.960938 528.492188 677.574219 594.300781 625.023438 642.859375 L 624.972656 642.859375 C 567.164062 696.339844 489.859375 729.039062 404.980469 729.039062 C 363.4375 729.039062 323.722656 721.246094 287.285156 706.945312 C 282.769531 705.234375 278.289062 703.359375 273.863281 701.394531 C 212.214844 674.089844 160.746094 628.148438 126.492188 570.644531 C 109.292969 541.75 96.394531 509.929688 88.804688 476.144531 C 83.660156 453.21875 80.957031 429.398438 80.957031 404.980469 C 80.957031 396.40625 81.277344 387.921875 82.003906 379.566406 C 87.464844 308.488281 115.902344 243.867188 159.878906 193.089844 C 176.808594 173.53125 196.050781 156.015625 217.164062 140.996094 L 217.214844 140.945312 C 222.929688 136.902344 228.800781 132.945312 234.835938 129.257812 C 271.640625 106.484375 313.324219 90.832031 357.976562 84.335938 C 373.3125 82.09375 389.019531 80.957031 404.980469 80.957031 C 443.023438 80.957031 479.617188 87.550781 513.515625 99.621094 C 568.3125 119.066406 616.230469 152.851562 652.9375 196.40625 C 700.460938 252.773438 729.039062 325.546875 729.039062 404.980469 " fill-opacity="1" fill-rule="nonzero"/></g><path fill="#68c286" d="M 448.269531 658.578125 C 448.269531 658.578125 430.625 633.964844 432.589844 591.773438 C 434.539062 549.582031 430.625 542.550781 403.195312 533.761719 C 375.761719 524.972656 348.320312 509.136719 344.402344 488.050781 C 340.484375 466.945312 364 417.726562 364 417.726562 C 364 417.726562 395.359375 396.636719 422.789062 400.144531 C 450.21875 403.664062 497.261719 403.664062 518.808594 423.007812 C 540.371094 442.335938 554.074219 486.289062 563.871094 488.050781 C 573.671875 489.808594 550.15625 565.402344 546.238281 577.714844 C 542.324219 590.011719 530.574219 639.246094 520.773438 658.578125 C 510.976562 677.917969 501.175781 695.5 493.332031 695.5 C 485.496094 695.5 450.21875 699.019531 448.269531 658.578125 " fill-opacity="1" fill-rule="nonzero"/><path fill="#68c286" d="M 296.011719 654.558594 C 294.300781 662.863281 291.238281 684.960938 287.285156 706.945312 C 282.769531 705.234375 278.289062 703.359375 273.863281 701.394531 C 212.214844 674.089844 160.746094 628.148438 126.492188 570.644531 C 109.292969 541.75 96.394531 509.929688 88.804688 476.144531 C 100.757812 469.792969 115.734375 464.074219 130.445312 464.34375 C 162.671875 464.96875 166.730469 472.890625 194.175781 492.578125 C 221.566406 512.289062 243.039062 561.460938 254.636719 562.300781 C 266.21875 563.082031 298.984375 639.785156 296.011719 654.558594 " fill-opacity="1" fill-rule="nonzero"/><g clip-path="url(#e906cb8eb6)"><path fill="#68c286" d="M 729.039062 404.980469 C 729.039062 405.746094 729.039062 406.585938 728.988281 407.367188 C 728.886719 423.324219 727.636719 439.019531 725.238281 454.367188 C 710.695312 432.996094 694.988281 400.921875 686.988281 395.308594 C 674.664062 386.621094 629.5 381.425781 645.921875 403.984375 C 662.351562 426.605469 669.304688 426.605469 669.304688 426.605469 C 669.304688 426.605469 637.703125 490.230469 615.148438 484.054688 C 592.539062 477.917969 547.363281 395.308594 547.363281 395.308594 C 520.683594 374.308594 572 358.820312 572 358.820312 C 572 358.820312 588.429688 344.46875 563.78125 328.035156 C 539.144531 311.613281 520.683594 346.496094 504.265625 342.386719 C 487.84375 338.277344 483.722656 354.699219 478.582031 371.132812 C 473.441406 387.550781 458.460938 397.386719 454.980469 371.132812 C 451.445312 344.875 413.910156 360.898438 401.597656 360.898438 C 389.273438 360.898438 364.636719 403.984375 342.015625 403.984375 C 319.460938 403.984375 319.460938 373.210938 323.570312 358.820312 C 327.675781 344.46875 362.558594 330.0625 395.410156 328.035156 C 428.261719 325.96875 397.492188 297.210938 407.734375 291.648438 C 418.019531 286.035156 448.804688 295.179688 478.582031 307.507812 C 508.320312 319.832031 539.144531 291.074219 565.863281 291.648438 C 592.539062 292.222656 508.371094 270.546875 535.039062 250.003906 C 561.765625 229.476562 504.265625 210.976562 506.292969 188.40625 C 508.371094 165.800781 489.859375 139.121094 489.859375 114.484375 C 489.859375 106.640625 498.601562 101.535156 513.515625 99.621094 C 568.3125 119.066406 616.230469 152.851562 652.9375 196.40625 C 700.460938 252.773438 729.039062 325.546875 729.039062 404.980469 " fill-opacity="1" fill-rule="nonzero"/></g><path fill="#68c286" d="M 270.316406 295.4375 C 270.316406 295.4375 282.21875 309.496094 291.390625 295.4375 C 300.578125 281.363281 301.878906 270.148438 296.136719 269.140625 C 290.371094 268.109375 256.203125 289.582031 270.316406 295.4375 " fill-opacity="1" fill-rule="nonzero"/><path fill="#68c286" d="M 200.972656 295.4375 C 200.972656 295.4375 225.445312 289.183594 230.878906 276.949219 C 236.328125 264.703125 267.597656 270.148438 275.75 257.902344 C 283.914062 245.667969 305.03125 241.304688 310.121094 229.882812 C 315.1875 218.480469 320.710938 200.808594 299.597656 199.429688 C 278.480469 198.078125 257.660156 188.574219 257.875 199.429688 C 258.082031 210.324219 252.644531 207.59375 233.609375 214.394531 C 214.574219 221.195312 194.175781 211.386719 194.175781 229.882812 C 194.175781 248.398438 199.621094 269.089844 199.621094 269.089844 C 199.621094 269.089844 188.738281 284.019531 200.972656 295.4375 " fill-opacity="1" fill-rule="nonzero"/><path fill="#68c286" d="M 357.976562 84.335938 C 357.976562 84.335938 321.539062 132.996094 314.777344 134.300781 C 307.976562 135.585938 287.132812 149.878906 283.277344 164.191406 C 279.386719 178.492188 252.082031 187.578125 231.300781 178.492188 C 210.503906 169.382812 205.71875 159.355469 217.164062 140.996094 L 217.214844 140.945312 C 222.929688 136.902344 228.800781 132.945312 234.835938 129.257812 C 271.640625 106.484375 313.324219 90.832031 357.976562 84.335938 " fill-opacity="1" fill-rule="nonzero"/><path fill="#68c286" d="M 153.742188 275.535156 C 150.296875 285.933594 151.140625 298.050781 139.914062 301.675781 C 128.621094 305.324219 132.945312 318.835938 125.152344 336.148438 C 118.132812 351.75 88.039062 375.035156 82.003906 379.566406 C 87.464844 308.488281 115.902344 243.867188 159.878906 193.089844 C 164.445312 206.96875 162.671875 229.882812 166.730469 237.375 C 172.816406 248.652344 157.214844 265.136719 153.742188 275.535156 " fill-opacity="1" fill-rule="nonzero"/></svg>