<svg width="496" height="100" viewBox="0 0 496 100" fill="none" xmlns="http://www.w3.org/2000/svg">
<mask id="mask0_101_226" style="mask-type:luminance" maskUnits="userSpaceOnUse" x="11" y="11" width="83" height="82">
<path d="M11.4744 11.1694H93.9359V92.2256H11.4744V11.1694Z" fill="white"/>
</mask>
<g mask="url(#mask0_101_226)">
<path d="M93.9391 51.6943C93.9391 51.792 93.9391 51.896 93.9327 51.9936C93.9199 53.9911 93.7628 55.9538 93.4551 57.8725C92.0224 67.1444 87.391 75.3767 80.7019 81.4509H80.6955C73.3398 88.1426 63.5032 92.2319 52.7019 92.2319C47.4167 92.2319 42.3622 91.2553 37.7244 89.4689C37.1507 89.2547 36.5801 89.0184 36.016 88.7727C28.1699 85.3575 21.6218 79.611 17.2628 72.4184C15.0737 68.8047 13.4327 64.8225 12.468 60.5977C11.8109 57.7307 11.468 54.7503 11.468 51.6943C11.468 50.6232 11.5096 49.5614 11.6026 48.5155C12.2949 39.6247 15.9135 31.5437 21.5128 25.1923C23.6667 22.7443 26.1154 20.5547 28.8013 18.6739L28.8077 18.6676C29.5353 18.1635 30.2821 17.6688 31.0513 17.2057C35.734 14.3577 41.0385 12.4012 46.7212 11.5884C48.6731 11.308 50.6699 11.1662 52.7019 11.1662C57.5417 11.1662 62.1987 11.9885 66.5128 13.5007C73.4872 15.9329 79.5833 20.1577 84.2564 25.605C90.3045 32.6558 93.9391 41.7608 93.9391 51.6943Z" fill="#A3F1E9"/>
</g>
<path d="M58.2115 83.4168C58.2115 83.4168 55.9647 80.3387 56.2147 75.0616C56.4647 69.7845 55.9647 68.9056 52.4743 67.806C48.984 66.7065 45.4904 64.7248 44.9936 62.0879C44.4936 59.4477 47.4872 53.2916 47.4872 53.2916C47.4872 53.2916 51.4776 50.6515 54.9679 51.0894C58.4583 51.5305 64.4455 51.5305 67.1859 53.9501C69.9295 56.3697 71.6763 61.8673 72.9231 62.0879C74.1699 62.3084 71.1763 71.7631 70.6763 73.3037C70.1795 74.8411 68.6827 81.0004 67.4359 83.4168C66.1891 85.8364 64.9423 88.0354 63.9455 88.0354C62.9487 88.0354 58.4583 88.4765 58.2115 83.4168Z" fill="#68C286"/>
<path d="M38.8333 82.9159C38.6186 83.9524 38.2276 86.7185 37.7244 89.4689C37.1507 89.2547 36.5801 89.0184 36.016 88.7727C28.1699 85.3575 21.6218 79.611 17.2628 72.4184C15.0737 68.8047 13.4327 64.8225 12.468 60.5977C13.9872 59.8037 15.8942 59.0886 17.766 59.1201C21.8654 59.1988 22.3846 60.1913 25.875 62.6518C29.3622 65.1186 32.093 71.2684 33.5705 71.3756C35.0449 71.4732 39.2148 81.0665 38.8333 82.9159Z" fill="#68C286"/>
<mask id="mask1_101_226" style="mask-type:luminance" maskUnits="userSpaceOnUse" x="42" y="12" width="52" height="51">
<path d="M42.0513 12.9998H93.9359V62.1982H42.0513V12.9998Z" fill="white"/>
</mask>
<g mask="url(#mask1_101_226)">
<path d="M93.9391 51.6943C93.9391 51.792 93.9391 51.896 93.9327 51.9936C93.9199 53.9911 93.7628 55.9538 93.4551 57.8725C91.6058 55.2009 89.6058 51.1871 88.5897 50.4877C87.0192 49.4008 81.2724 48.7486 83.3622 51.5715C85.4551 54.4006 86.3397 54.4006 86.3397 54.4006C86.3397 54.4006 82.3173 62.3588 79.4455 61.5869C76.5705 60.8182 70.8205 50.4877 70.8205 50.4877C67.4263 47.8602 73.9551 45.9226 73.9551 45.9226C73.9551 45.9226 76.0481 44.1268 72.9102 42.0695C69.7756 40.0186 67.4263 44.3789 65.3365 43.8653C63.2468 43.3518 62.7211 45.4059 62.0673 47.4632C61.4135 49.5173 59.5064 50.746 59.0641 47.4632C58.6154 44.1772 53.8397 46.1809 52.2724 46.1809C50.7019 46.1809 47.5673 51.5715 44.6891 51.5715C41.8205 51.5715 41.8205 47.7215 42.3429 45.9226C42.8654 44.1268 47.3045 42.3247 51.484 42.0695C55.6635 41.8112 51.75 38.2165 53.0513 37.5202C54.3622 36.8176 58.2788 37.9613 62.0673 39.5019C65.8526 41.0456 69.7756 37.4477 73.1763 37.5202C76.5705 37.5927 65.859 34.8801 69.2532 32.3093C72.6538 29.7416 65.3365 27.4291 65.5929 24.6063C65.859 21.7771 63.5032 18.4407 63.5032 15.3595C63.5032 14.3766 64.6154 13.7402 66.5128 13.5007C73.4872 15.9329 79.5833 20.1578 84.2564 25.605C90.3045 32.6558 93.9391 41.7608 93.9391 51.6943Z" fill="#68C286"/>
</g>
<path d="M35.5641 37.9928C35.5641 37.9928 37.0801 39.7508 38.2468 37.9928C39.4166 36.2317 39.5801 34.8297 38.8525 34.7037C38.1186 34.5745 33.7692 37.2619 35.5641 37.9928Z" fill="#68C286"/>
<path d="M26.7404 37.9928C26.7404 37.9928 29.8558 37.2115 30.5481 35.6803C31.2404 34.1492 35.2179 34.8297 36.2564 33.2985C37.2949 31.7674 39.984 31.2223 40.6314 29.7952C41.2756 28.368 41.9776 26.1563 39.2917 25.983C36.6026 25.8161 33.9551 24.6252 33.9808 25.983C34.0064 27.3472 33.3173 27.007 30.8942 27.8576C28.4712 28.7082 25.875 27.4795 25.875 29.7952C25.875 32.1108 26.5673 34.6973 26.5673 34.6973C26.5673 34.6973 25.1827 36.5656 26.7404 37.9928Z" fill="#68C286"/>
<path d="M46.7211 11.5884C46.7211 11.5884 42.0833 17.6752 41.2244 17.8358C40.359 17.9997 37.7051 19.786 37.2147 21.5755C36.7179 23.365 33.2436 24.5023 30.5993 23.365C27.9551 22.2245 27.3461 20.9706 28.8013 18.6739L28.8077 18.6676C29.5352 18.1635 30.282 17.6689 31.0513 17.2057C35.734 14.3577 41.0385 12.4012 46.7211 11.5884Z" fill="#68C286"/>
<mask id="mask2_101_226" style="mask-type:luminance" maskUnits="userSpaceOnUse" x="11" y="25" width="13" height="25">
<path d="M11.4744 25.0978H23.1795V49.2937H11.4744V25.0978Z" fill="white"/>
</mask>
<g mask="url(#mask2_101_226)">
<path d="M20.7307 35.5039C20.2916 36.8051 20.4006 38.3205 18.9711 38.7742C17.5352 39.231 18.0833 40.9197 17.0929 43.0872C16.1987 45.0374 12.3686 47.9516 11.6025 48.5155C12.2948 39.6248 15.9134 31.5437 21.5128 25.1923C22.0929 26.9283 21.8654 29.7952 22.3846 30.7309C23.157 32.1423 21.1731 34.2028 20.7307 35.5039Z" fill="#68C286"/>
</g>
<path d="M116.135 71.5394C113.635 71.5394 111.439 71.0573 109.542 70.0901C107.654 69.1261 106.186 67.7556 105.138 65.9819C104.09 64.2081 103.567 62.1414 103.567 59.7817V47.4758C103.567 45.1602 104.09 43.1218 105.138 41.3607C106.186 39.6027 107.654 38.248 109.542 37.2997C111.439 36.3514 113.635 35.8788 116.135 35.8788C118.631 35.8788 120.817 36.3451 122.689 37.2776C124.57 38.2007 126.032 39.5082 127.08 41.2031C128.128 42.8981 128.651 44.8766 128.651 47.1355C128.651 47.3624 128.58 47.5546 128.442 47.7089C128.311 47.8539 128.125 47.9263 127.885 47.9263L119.881 48.2792C119.378 48.2792 119.128 48.0492 119.128 47.5861V47.041C119.128 46.0738 118.856 45.3082 118.311 44.7412C117.776 44.1741 117.048 43.8905 116.135 43.8905C115.228 43.8905 114.494 44.1835 113.933 44.7664C113.372 45.3492 113.093 46.1085 113.093 47.041V60.3771C113.093 61.3097 113.372 62.0658 113.933 62.6518C114.494 63.2252 115.228 63.515 116.135 63.515C117.048 63.515 117.776 63.2346 118.311 62.6738C118.856 62.1067 119.128 61.3412 119.128 60.3771V59.7817C119.128 59.3186 119.378 59.0886 119.881 59.0886L127.885 59.4288C128.125 59.4288 128.311 59.4981 128.442 59.6368C128.58 59.7659 128.651 59.9487 128.651 60.1818C128.651 62.4344 128.128 64.4255 127.08 66.152C126.032 67.8785 124.561 69.208 122.663 70.1405C120.776 71.0731 118.599 71.5394 116.135 71.5394ZM132.25 71.1361C132.013 71.1361 131.824 71.0731 131.683 70.9439C131.551 70.8053 131.484 70.6226 131.484 70.3957V37.0224C131.484 36.7956 131.551 36.616 131.683 36.4868C131.824 36.3482 132.013 36.2789 132.25 36.2789H140.253C140.484 36.2789 140.667 36.3482 140.798 36.4868C140.939 36.616 141.01 36.7956 141.01 37.0224V62.8219C141.01 63.0235 141.112 63.1244 141.317 63.1244H154.032C154.272 63.1244 154.458 63.1905 154.59 63.3197C154.721 63.4489 154.788 63.6316 154.788 63.8679V70.3957C154.788 70.6226 154.721 70.8053 154.59 70.9439C154.458 71.0731 154.272 71.1361 154.032 71.1361H132.25ZM180.279 43.5503C180.279 43.7771 180.208 43.9598 180.067 44.0985C179.936 44.2276 179.75 44.2906 179.51 44.2906H167.154C166.949 44.2906 166.846 44.3946 166.846 44.5962V49.2779C166.846 49.4701 166.949 49.5677 167.154 49.5677H174.292C174.529 49.5677 174.715 49.637 174.846 49.7757C174.987 49.9048 175.058 50.0876 175.058 50.3239V56.7918C175.058 57.025 174.987 57.2109 174.846 57.3495C174.715 57.4787 174.529 57.5448 174.292 57.5448H167.154C166.949 57.5448 166.846 57.6425 166.846 57.8347V62.8219C166.846 63.0235 166.949 63.1244 167.154 63.1244H179.51C179.75 63.1244 179.936 63.1905 180.067 63.3197C180.208 63.4489 180.279 63.6316 180.279 63.8679V70.3957C180.279 70.6226 180.208 70.8053 180.067 70.9439C179.936 71.0731 179.75 71.1361 179.51 71.1361H158.086C157.849 71.1361 157.66 71.0731 157.519 70.9439C157.388 70.8053 157.32 70.6226 157.32 70.3957V37.0224C157.32 36.7956 157.388 36.616 157.519 36.4868C157.66 36.3482 157.849 36.2789 158.086 36.2789H179.51C179.75 36.2789 179.936 36.3482 180.067 36.4868C180.208 36.616 180.279 36.7956 180.279 37.0224V43.5503ZM202.872 71.1361C202.391 71.1361 202.102 70.9219 202.003 70.4934L201.151 66.6498C201.077 66.4891 200.974 66.4072 200.843 66.4072H193.247C193.106 66.4072 193.003 66.4891 192.939 66.6498L192.122 70.4934C192.022 70.9219 191.737 71.1361 191.269 71.1361H182.955C182.683 71.1361 182.49 71.0636 182.375 70.9187C182.26 70.7643 182.234 70.5533 182.301 70.2855L191.317 36.9248C191.417 36.4931 191.686 36.2789 192.122 36.2789H202.154C202.599 36.2789 202.872 36.4931 202.968 36.9248L211.936 70.2855C211.971 70.3579 211.987 70.443 211.987 70.5407C211.987 70.9376 211.75 71.1361 211.282 71.1361H202.872ZM194.558 58.9909C194.558 59.1547 194.66 59.2335 194.869 59.2335H199.173C199.404 59.2335 199.503 59.1169 199.468 58.8806L197.192 48.5218C197.16 48.3926 197.09 48.3296 196.984 48.3296C196.885 48.3296 196.817 48.3926 196.785 48.5218L194.558 58.8806V58.9909ZM231.846 37.0224C231.846 36.7956 231.913 36.616 232.045 36.4868C232.186 36.3482 232.368 36.2789 232.602 36.2789H240.554C240.795 36.2789 240.977 36.3482 241.112 36.4868C241.25 36.616 241.32 36.7956 241.32 37.0224V70.3957C241.32 70.6226 241.25 70.8053 241.112 70.9439C240.977 71.0731 240.795 71.1361 240.554 71.1361H232.205C231.76 71.1361 231.471 70.9534 231.34 70.5911L224.301 54.3597C224.269 54.221 224.199 54.1517 224.09 54.1517C223.994 54.1517 223.942 54.2368 223.942 54.4069L224.042 70.3957C224.042 70.6226 223.971 70.8053 223.83 70.9439C223.699 71.0731 223.519 71.1361 223.288 71.1361H215.333C215.096 71.1361 214.904 71.0731 214.766 70.9439C214.635 70.8053 214.567 70.6226 214.567 70.3957V37.0224C214.567 36.7956 214.635 36.616 214.766 36.4868C214.904 36.3482 215.096 36.2789 215.333 36.2789H223.635C224.08 36.2789 224.369 36.4616 224.5 36.8271L231.538 53.0585C231.57 53.1971 231.638 53.257 231.734 53.2412C231.843 53.216 231.897 53.1215 231.897 52.9608L231.846 37.0224ZM266.901 71.5394C264.401 71.5394 262.202 71.0573 260.308 70.0901C258.42 69.1261 256.952 67.7556 255.904 65.9819C254.856 64.2081 254.333 62.1414 254.333 59.7817V47.4758C254.333 45.1602 254.856 43.1218 255.904 41.3607C256.952 39.6027 258.42 38.248 260.308 37.2997C262.202 36.3514 264.401 35.8788 266.901 35.8788C269.397 35.8788 271.583 36.3451 273.455 37.2776C275.336 38.2007 276.798 39.5082 277.846 41.2031C278.894 42.8981 279.417 44.8766 279.417 47.1355C279.417 47.3624 279.346 47.5546 279.205 47.7089C279.074 47.8539 278.888 47.9263 278.651 47.9263L270.647 48.2792C270.144 48.2792 269.894 48.0492 269.894 47.5861V47.041C269.894 46.0738 269.622 45.3082 269.077 44.7412C268.542 44.1741 267.814 43.8905 266.901 43.8905C265.993 43.8905 265.26 44.1835 264.699 44.7664C264.138 45.3492 263.856 46.1085 263.856 47.041V60.3771C263.856 61.3097 264.138 62.0658 264.699 62.6518C265.26 63.2252 265.993 63.515 266.901 63.515C267.814 63.515 268.542 63.2346 269.077 62.6738C269.622 62.1067 269.894 61.3412 269.894 60.3771V59.7817C269.894 59.3186 270.144 59.0886 270.647 59.0886L278.651 59.4288C278.888 59.4288 279.074 59.4981 279.205 59.6368C279.346 59.7659 279.417 59.9487 279.417 60.1818C279.417 62.4344 278.894 64.4255 277.846 66.152C276.798 67.8785 275.327 69.208 273.429 70.1405C271.542 71.0731 269.365 71.5394 266.901 71.5394ZM294.558 71.637C292.026 71.637 289.795 71.1361 287.865 70.1405C285.942 69.1418 284.458 67.7399 283.413 65.9346C282.365 64.1262 281.84 62.028 281.84 59.6368V47.7814C281.84 45.3902 282.365 43.2982 283.413 41.5087C284.458 39.7161 285.942 38.3299 287.865 37.3501C289.795 36.3703 292.026 35.8788 294.558 35.8788C297.096 35.8788 299.336 36.3703 301.272 37.3501C303.218 38.3299 304.715 39.7161 305.763 41.5087C306.811 43.2982 307.333 45.3902 307.333 47.7814V59.6368C307.333 62.028 306.801 64.1262 305.737 65.9346C304.673 67.7399 303.176 69.1418 301.247 70.1405C299.327 71.1361 297.096 71.637 294.558 71.637ZM294.558 63.6221C295.538 63.6221 296.324 63.2913 296.92 62.6266C297.513 61.9618 297.811 61.0797 297.811 59.977V47.5262C297.811 46.433 297.513 45.5508 296.92 44.8861C296.324 44.2245 295.538 43.8905 294.558 43.8905C293.615 43.8905 292.849 44.2245 292.256 44.8861C291.663 45.5508 291.365 46.433 291.365 47.5262V59.977C291.365 61.0797 291.663 61.9618 292.256 62.6266C292.849 63.2913 293.615 63.6221 294.558 63.6221ZM329.92 36.7767C330.093 36.4459 330.397 36.2789 330.833 36.2789H338.737C338.977 36.2789 339.163 36.3482 339.295 36.4868C339.436 36.616 339.503 36.7956 339.503 37.0224V70.3957C339.503 70.6226 339.436 70.8053 339.295 70.9439C339.163 71.0731 338.977 71.1361 338.737 71.1361H330.734C330.497 71.1361 330.311 71.0731 330.179 70.9439C330.048 70.8053 329.981 70.6226 329.981 70.3957V51.2722C329.981 51.1335 329.936 51.0485 329.846 51.0138C329.763 50.9823 329.689 51.0359 329.622 51.1745L326.381 56.4516C326.176 56.7824 325.868 56.9494 325.465 56.9494H324.141C323.737 56.9494 323.436 56.7824 323.24 56.4516L320 51.1115C319.926 50.9823 319.846 50.9351 319.763 50.9666C319.683 50.9981 319.641 51.0831 319.641 51.2218V70.3957C319.641 70.6226 319.57 70.8053 319.429 70.9439C319.298 71.0731 319.112 71.1361 318.872 71.1361H310.872C310.641 71.1361 310.455 71.0731 310.314 70.9439C310.183 70.8053 310.115 70.6226 310.115 70.3957V37.0224C310.115 36.7956 310.183 36.616 310.314 36.4868C310.455 36.3482 310.641 36.2789 310.872 36.2789H318.775C319.179 36.2789 319.484 36.4459 319.689 36.7767L324.651 45.0468C324.724 45.1444 324.801 45.1917 324.884 45.1917C324.968 45.1917 325.026 45.1444 325.058 45.0468L329.92 36.7767ZM362.343 36.7767C362.516 36.4459 362.82 36.2789 363.256 36.2789H371.16C371.4 36.2789 371.586 36.3482 371.718 36.4868C371.856 36.616 371.926 36.7956 371.926 37.0224V70.3957C371.926 70.6226 371.856 70.8053 371.718 70.9439C371.586 71.0731 371.4 71.1361 371.16 71.1361H363.157C362.92 71.1361 362.734 71.0731 362.602 70.9439C362.468 70.8053 362.404 70.6226 362.404 70.3957V51.2722C362.404 51.1335 362.359 51.0485 362.266 51.0138C362.186 50.9823 362.109 51.0359 362.045 51.1745L358.804 56.4516C358.599 56.7824 358.292 56.9494 357.888 56.9494H356.564C356.16 56.9494 355.859 56.7824 355.663 56.4516L352.423 51.1115C352.346 50.9823 352.269 50.9351 352.186 50.9666C352.102 50.9981 352.064 51.0831 352.064 51.2218V70.3957C352.064 70.6226 351.993 70.8053 351.852 70.9439C351.721 71.0731 351.535 71.1361 351.295 71.1361H343.295C343.061 71.1361 342.878 71.0731 342.737 70.9439C342.606 70.8053 342.538 70.6226 342.538 70.3957V37.0224C342.538 36.7956 342.606 36.616 342.737 36.4868C342.878 36.3482 343.061 36.2789 343.295 36.2789H351.195C351.602 36.2789 351.907 36.4459 352.112 36.7767L357.074 45.0468C357.147 45.1444 357.224 45.1917 357.308 45.1917C357.391 45.1917 357.449 45.1444 357.481 45.0468L362.343 36.7767ZM387.368 71.5394C384.9 71.5394 382.734 71.0573 380.862 70.0901C378.99 69.1261 377.538 67.7651 376.506 66.0071C375.477 64.2459 374.961 62.2044 374.961 59.8793V37.0224C374.961 36.7956 375.029 36.616 375.16 36.4868C375.298 36.3482 375.484 36.2789 375.715 36.2789H383.718C383.958 36.2789 384.144 36.3482 384.275 36.4868C384.416 36.616 384.484 36.7956 384.484 37.0224V60.3299C384.484 61.2939 384.747 62.0658 385.266 62.6518C385.792 63.2252 386.493 63.515 387.368 63.515C388.218 63.515 388.91 63.2252 389.445 62.6518C389.99 62.0658 390.263 61.2939 390.263 60.3299V37.0224C390.263 36.7956 390.327 36.616 390.458 36.4868C390.599 36.3482 390.785 36.2789 391.016 36.2789H399.019C399.259 36.2789 399.442 36.3482 399.577 36.4868C399.715 36.616 399.785 36.7956 399.785 37.0224V59.8793C399.785 62.2044 399.269 64.2459 398.24 66.0071C397.208 67.7651 395.753 69.1261 393.875 70.0901C392.003 71.0573 389.833 71.5394 387.368 71.5394ZM427.288 36.2789C427.529 36.2789 427.715 36.3482 427.846 36.4868C427.987 36.616 428.054 36.7956 428.054 37.0224V43.5503C428.054 43.7771 427.987 43.9598 427.846 44.0985C427.715 44.2276 427.529 44.2906 427.288 44.2906H420.102C419.897 44.2906 419.795 44.3946 419.795 44.5962V70.3957C419.795 70.6226 419.724 70.8053 419.583 70.9439C419.452 71.0731 419.269 71.1361 419.038 71.1361H411.035C410.798 71.1361 410.609 71.0731 410.468 70.9439C410.336 70.8053 410.269 70.6226 410.269 70.3957V44.5962C410.269 44.3946 410.17 44.2906 409.971 44.2906H402.923C402.683 44.2906 402.497 44.2276 402.365 44.0985C402.234 43.9598 402.166 43.7771 402.166 43.5503V37.0224C402.166 36.7956 402.234 36.616 402.365 36.4868C402.497 36.3482 402.683 36.2789 402.923 36.2789H427.288ZM453.59 43.5503C453.59 43.7771 453.519 43.9598 453.381 44.0985C453.247 44.2276 453.064 44.2906 452.824 44.2906H440.468C440.259 44.2906 440.157 44.3946 440.157 44.5962V49.2779C440.157 49.4701 440.259 49.5677 440.468 49.5677H447.602C447.843 49.5677 448.029 49.637 448.16 49.7757C448.301 49.9048 448.372 50.0876 448.372 50.3239V56.7918C448.372 57.025 448.301 57.2109 448.16 57.3495C448.029 57.4787 447.843 57.5448 447.602 57.5448H440.468C440.259 57.5448 440.157 57.6425 440.157 57.8347V62.8219C440.157 63.0235 440.259 63.1244 440.468 63.1244H452.824C453.064 63.1244 453.247 63.1905 453.381 63.3197C453.519 63.4489 453.59 63.6316 453.59 63.8679V70.3957C453.59 70.6226 453.519 70.8053 453.381 70.9439C453.247 71.0731 453.064 71.1361 452.824 71.1361H431.4C431.16 71.1361 430.971 71.0731 430.83 70.9439C430.699 70.8053 430.634 70.6226 430.634 70.3957V37.0224C430.634 36.7956 430.699 36.616 430.83 36.4868C430.971 36.3482 431.16 36.2789 431.4 36.2789H452.824C453.064 36.2789 453.247 36.3482 453.381 36.4868C453.519 36.616 453.59 36.7956 453.59 37.0224V43.5503ZM472.583 71.1361C472.147 71.1361 471.859 70.9376 471.718 70.5407L467.413 57.9953C467.381 57.8252 467.266 57.7401 467.067 57.7401H466.15C465.945 57.7401 465.843 57.841 465.843 58.0426V70.3957C465.843 70.6226 465.772 70.8053 465.631 70.9439C465.5 71.0731 465.317 71.1361 465.086 71.1361H457.086C456.846 71.1361 456.657 71.0731 456.516 70.9439C456.384 70.8053 456.317 70.6226 456.317 70.3957V37.0224C456.317 36.7956 456.384 36.616 456.516 36.4868C456.657 36.3482 456.846 36.2789 457.086 36.2789H470.455C472.615 36.2789 474.525 36.7452 476.182 37.6777C477.84 38.6008 479.122 39.902 480.029 41.5812C480.945 43.2573 481.404 45.1917 481.404 47.3813C481.404 49.4071 480.971 51.1934 480.102 52.7403C479.247 54.2809 478.038 55.4812 476.481 56.3413C476.349 56.4453 476.298 56.5808 476.33 56.7414L481.551 70.2855C481.583 70.3926 481.599 70.5091 481.599 70.6383C481.599 70.9723 481.381 71.1361 480.945 71.1361H472.583ZM466.15 44.2906C465.945 44.2906 465.843 44.3946 465.843 44.5962V50.3239C465.843 50.516 465.945 50.6137 466.15 50.6137H468.836C469.743 50.6137 470.484 50.3333 471.061 49.7757C471.641 49.2086 471.929 48.443 471.929 47.4758C471.929 46.4897 471.647 45.7115 471.086 45.1444C470.535 44.5742 469.785 44.2906 468.836 44.2906H466.15Z" stroke="#5CA474" stroke-width="2.88175"/>
</svg>
