<svg xmlns="http://www.w3.org/2000/svg" xmlns:xlink="http://www.w3.org/1999/xlink" width="1080" zoomAndPan="magnify" viewBox="0 0 810 809.999993" height="1080" preserveAspectRatio="xMidYMid meet" version="1.0"><defs><clipPath id="7a4105ce06"><path d="M 116.734375 354.730469 L 217.234375 354.730469 L 217.234375 455.230469 L 116.734375 455.230469 Z M 116.734375 354.730469 " clip-rule="nonzero"/></clipPath><clipPath id="8a58fd0146"><path d="M 154 357 L 217.234375 357 L 217.234375 418 L 154 418 Z M 154 357 " clip-rule="nonzero"/></clipPath><clipPath id="933993bc81"><path d="M 116.734375 372 L 131 372 L 131 402 L 116.734375 402 Z M 116.734375 372 " clip-rule="nonzero"/></clipPath></defs><g clip-path="url(#7a4105ce06)"><path fill="#a3f1e9" d="M 217.238281 404.976562 C 217.238281 405.097656 217.238281 405.226562 217.230469 405.347656 C 217.214844 407.824219 217.023438 410.257812 216.648438 412.636719 C 214.902344 424.132812 209.257812 434.339844 201.105469 441.871094 L 201.097656 441.871094 C 192.132812 450.167969 180.144531 455.238281 166.980469 455.238281 C 160.539062 455.238281 154.378906 454.027344 148.726562 451.8125 C 148.027344 451.546875 147.332031 451.253906 146.644531 450.949219 C 137.082031 446.714844 129.101562 439.589844 123.789062 430.671875 C 121.121094 426.191406 119.121094 421.253906 117.945312 416.015625 C 117.144531 412.460938 116.726562 408.765625 116.726562 404.976562 C 116.726562 403.648438 116.777344 402.332031 116.890625 401.035156 C 117.734375 390.011719 122.144531 379.992188 128.96875 372.117188 C 131.59375 369.082031 134.578125 366.367188 137.851562 364.035156 L 137.859375 364.027344 C 138.746094 363.402344 139.65625 362.789062 140.59375 362.214844 C 146.300781 358.683594 152.765625 356.257812 159.691406 355.25 C 162.070312 354.902344 164.503906 354.726562 166.980469 354.726562 C 172.878906 354.726562 178.554688 355.746094 183.8125 357.621094 C 192.3125 360.636719 199.742188 365.875 205.4375 372.628906 C 212.808594 381.371094 217.238281 392.660156 217.238281 404.976562 " fill-opacity="1" fill-rule="nonzero"/></g><path fill="#68c286" d="M 173.695312 444.308594 C 173.695312 444.308594 170.957031 440.492188 171.261719 433.949219 C 171.566406 427.40625 170.957031 426.316406 166.703125 424.953125 C 162.449219 423.589844 158.191406 421.132812 157.585938 417.863281 C 156.976562 414.589844 160.625 406.957031 160.625 406.957031 C 160.625 406.957031 165.488281 403.683594 169.742188 404.226562 C 173.996094 404.773438 181.292969 404.773438 184.632812 407.773438 C 187.976562 410.773438 190.105469 417.589844 191.625 417.863281 C 193.144531 418.136719 189.496094 429.859375 188.886719 431.769531 C 188.28125 433.675781 186.457031 441.3125 184.9375 444.308594 C 183.417969 447.308594 181.898438 450.035156 180.683594 450.035156 C 179.46875 450.035156 173.996094 450.582031 173.695312 444.308594 " fill-opacity="1" fill-rule="nonzero"/><path fill="#68c286" d="M 150.078125 443.6875 C 149.816406 444.972656 149.339844 448.402344 148.726562 451.8125 C 148.027344 451.546875 147.332031 451.253906 146.644531 450.949219 C 137.082031 446.714844 129.101562 439.589844 123.789062 430.671875 C 121.121094 426.191406 119.121094 421.253906 117.945312 416.015625 C 119.796875 415.03125 122.121094 414.144531 124.402344 414.183594 C 129.398438 414.28125 130.03125 415.511719 134.285156 418.5625 C 138.535156 421.621094 141.863281 429.246094 143.664062 429.378906 C 145.460938 429.5 150.542969 441.394531 150.078125 443.6875 " fill-opacity="1" fill-rule="nonzero"/><g clip-path="url(#8a58fd0146)"><path fill="#68c286" d="M 217.238281 404.976562 C 217.238281 405.097656 217.238281 405.226562 217.230469 405.347656 C 217.214844 407.824219 217.023438 410.257812 216.648438 412.636719 C 214.394531 409.324219 211.957031 404.347656 210.71875 403.480469 C 208.804688 402.132812 201.800781 401.324219 204.347656 404.824219 C 206.898438 408.332031 207.976562 408.332031 207.976562 408.332031 C 207.976562 408.332031 203.074219 418.199219 199.574219 417.242188 C 196.070312 416.289062 189.0625 403.480469 189.0625 403.480469 C 184.925781 400.222656 192.882812 397.820312 192.882812 397.820312 C 192.882812 397.820312 195.433594 395.59375 191.609375 393.042969 C 187.789062 390.5 184.925781 395.90625 182.378906 395.269531 C 179.832031 394.632812 179.191406 397.179688 178.394531 399.730469 C 177.597656 402.277344 175.273438 403.800781 174.734375 399.730469 C 174.1875 395.65625 168.367188 398.140625 166.457031 398.140625 C 164.542969 398.140625 160.722656 404.824219 157.214844 404.824219 C 153.71875 404.824219 153.71875 400.050781 154.355469 397.820312 C 154.992188 395.59375 160.402344 393.359375 165.496094 393.042969 C 170.589844 392.722656 165.820312 388.265625 167.40625 387.402344 C 169.003906 386.53125 173.777344 387.949219 178.394531 389.859375 C 183.007812 391.773438 187.789062 387.3125 191.933594 387.402344 C 196.070312 387.492188 183.015625 384.128906 187.152344 380.941406 C 191.296875 377.757812 182.378906 374.890625 182.691406 371.390625 C 183.015625 367.882812 180.144531 363.746094 180.144531 359.925781 C 180.144531 358.707031 181.5 357.917969 183.8125 357.621094 C 192.3125 360.636719 199.742188 365.875 205.4375 372.628906 C 212.808594 381.371094 217.238281 392.660156 217.238281 404.976562 " fill-opacity="1" fill-rule="nonzero"/></g><path fill="#68c286" d="M 146.09375 387.988281 C 146.09375 387.988281 147.941406 390.167969 149.363281 387.988281 C 150.789062 385.804688 150.988281 384.066406 150.101562 383.910156 C 149.207031 383.75 143.90625 387.082031 146.09375 387.988281 " fill-opacity="1" fill-rule="nonzero"/><path fill="#68c286" d="M 135.339844 387.988281 C 135.339844 387.988281 139.136719 387.019531 139.980469 385.121094 C 140.824219 383.222656 145.671875 384.066406 146.9375 382.167969 C 148.203125 380.269531 151.480469 379.59375 152.269531 377.824219 C 153.054688 376.054688 153.910156 373.3125 150.636719 373.097656 C 147.359375 372.890625 144.132812 371.414062 144.164062 373.097656 C 144.195312 374.789062 143.355469 374.367188 140.402344 375.421875 C 137.449219 376.476562 134.285156 374.953125 134.285156 377.824219 C 134.285156 380.695312 135.128906 383.902344 135.128906 383.902344 C 135.128906 383.902344 133.441406 386.21875 135.339844 387.988281 " fill-opacity="1" fill-rule="nonzero"/><path fill="#68c286" d="M 159.691406 355.25 C 159.691406 355.25 154.039062 362.796875 152.992188 362.996094 C 151.9375 363.199219 148.703125 365.414062 148.105469 367.632812 C 147.5 369.851562 143.265625 371.261719 140.042969 369.851562 C 136.820312 368.4375 136.078125 366.882812 137.851562 364.035156 L 137.859375 364.027344 C 138.746094 363.402344 139.65625 362.789062 140.59375 362.214844 C 146.300781 358.683594 152.765625 356.257812 159.691406 355.25 " fill-opacity="1" fill-rule="nonzero"/><g clip-path="url(#933993bc81)"><path fill="#68c286" d="M 128.015625 384.902344 C 127.480469 386.515625 127.613281 388.394531 125.871094 388.957031 C 124.121094 389.523438 124.789062 391.617188 123.582031 394.304688 C 122.492188 396.722656 117.824219 400.335938 116.890625 401.035156 C 117.734375 390.011719 122.144531 379.992188 128.96875 372.117188 C 129.675781 374.269531 129.398438 377.824219 130.03125 378.984375 C 130.972656 380.734375 128.554688 383.289062 128.015625 384.902344 " fill-opacity="1" fill-rule="nonzero"/></g><path stroke-linecap="butt" transform="matrix(0.926278, 0, 0, 0.926278, 206.579333, 374.432814)" fill="none" stroke-linejoin="miter" d="M 40.71101 59.53849 C 37.421638 59.53849 34.532894 58.893267 32.036344 57.598604 C 29.552446 56.308158 27.620993 54.4737 26.241987 52.099447 C 24.862981 49.725195 24.175586 46.958748 24.175586 43.800107 L 24.175586 27.327939 C 24.175586 24.228338 24.862981 21.499845 26.241987 19.142462 C 27.620993 16.789295 29.552446 14.975923 32.036344 13.706562 C 34.532894 12.437202 37.421638 11.80463 40.71101 11.80463 C 43.996166 11.80463 46.872259 12.428767 49.335071 13.677042 C 51.810535 14.912665 53.733553 16.66278 55.11256 18.931604 C 56.491566 21.200428 57.17896 23.848795 57.17896 26.872488 C 57.17896 27.176122 57.086183 27.433368 56.904846 27.640008 C 56.731943 27.833997 56.487349 27.930991 56.171063 27.930991 L 45.640853 28.403311 C 44.978761 28.403311 44.649824 28.09546 44.649824 27.475539 L 44.649824 26.745973 C 44.649824 25.45131 44.291366 24.426544 43.574452 23.667458 C 42.870189 22.908372 41.912897 22.528829 40.71101 22.528829 C 39.517559 22.528829 38.551832 22.921023 37.813832 23.701195 C 37.075832 24.481367 36.70894 25.497699 36.70894 26.745973 L 36.70894 44.597147 C 36.70894 45.845422 37.075832 46.857536 37.813832 47.641925 C 38.551832 48.409446 39.517559 48.797423 40.71101 48.797423 C 41.912897 48.797423 42.870189 48.422097 43.574452 47.671445 C 44.291366 46.912359 44.649824 45.887593 44.649824 44.597147 L 44.649824 43.800107 C 44.649824 43.180186 44.978761 42.872335 45.640853 42.872335 L 56.171063 43.327786 C 56.487349 43.327786 56.731943 43.420563 56.904846 43.606118 C 57.086183 43.779021 57.17896 44.023615 57.17896 44.335684 C 57.17896 47.350942 56.491566 50.016178 55.11256 52.327173 C 53.733553 54.638168 51.797884 56.417803 49.301334 57.666078 C 46.817436 58.914353 43.953995 59.53849 40.71101 59.53849 Z M 61.914814 58.998696 C 61.602745 58.998696 61.353934 58.914353 61.168379 58.74145 C 60.995476 58.555896 60.906916 58.311301 60.906916 58.007667 L 60.906916 13.335453 C 60.906916 13.031819 60.995476 12.791442 61.168379 12.618539 C 61.353934 12.432984 61.602745 12.340207 61.914814 12.340207 L 72.445024 12.340207 C 72.748659 12.340207 72.989036 12.432984 73.161939 12.618539 C 73.347493 12.791442 73.44027 13.031819 73.44027 13.335453 L 73.44027 47.869651 C 73.44027 48.139548 73.575219 48.274497 73.845116 48.274497 L 90.574529 48.274497 C 90.890815 48.274497 91.135409 48.363057 91.308312 48.53596 C 91.481215 48.708863 91.569775 48.953457 91.569775 49.269743 L 91.569775 58.007667 C 91.569775 58.311301 91.481215 58.555896 91.308312 58.74145 C 91.135409 58.914353 90.890815 58.998696 90.574529 58.998696 Z M 125.108727 22.073377 C 125.108727 22.377012 125.01595 22.621606 124.830395 22.80716 C 124.657493 22.980063 124.412898 23.064406 124.096612 23.064406 L 107.83952 23.064406 C 107.569622 23.064406 107.434674 23.203572 107.434674 23.473469 L 107.434674 29.740146 C 107.434674 29.997392 107.569622 30.128123 107.83952 30.128123 L 117.231101 30.128123 C 117.543169 30.128123 117.787764 30.220901 117.960667 30.406455 C 118.146221 30.579358 118.238998 30.823952 118.238998 31.140238 L 118.238998 39.798036 C 118.238998 40.110105 118.146221 40.358916 117.960667 40.544471 C 117.787764 40.717374 117.543169 40.805934 117.231101 40.805934 L 107.83952 40.805934 C 107.569622 40.805934 107.434674 40.936665 107.434674 41.193911 L 107.434674 47.869651 C 107.434674 48.139548 107.569622 48.274497 107.83952 48.274497 L 124.096612 48.274497 C 124.412898 48.274497 124.657493 48.363057 124.830395 48.53596 C 125.01595 48.708863 125.108727 48.953457 125.108727 49.269743 L 125.108727 58.007667 C 125.108727 58.311301 125.01595 58.555896 124.830395 58.74145 C 124.657493 58.914353 124.412898 58.998696 124.096612 58.998696 L 95.909217 58.998696 C 95.597149 58.998696 95.348337 58.914353 95.162783 58.74145 C 94.98988 58.555896 94.90132 58.311301 94.90132 58.007667 L 94.90132 13.335453 C 94.90132 13.031819 94.98988 12.791442 95.162783 12.618539 C 95.348337 12.432984 95.597149 12.340207 95.909217 12.340207 L 124.096612 12.340207 C 124.412898 12.340207 124.657493 12.432984 124.830395 12.618539 C 125.01595 12.791442 125.108727 13.031819 125.108727 13.335453 Z M 154.83538 58.998696 C 154.202808 58.998696 153.823265 58.71193 153.692534 58.138398 L 152.570773 52.993482 C 152.473779 52.778408 152.33883 52.668762 152.165927 52.668762 L 142.171294 52.668762 C 141.98574 52.668762 141.850791 52.778408 141.766448 52.993482 L 140.691077 58.138398 C 140.560345 58.71193 140.185019 58.998696 139.569316 58.998696 L 128.630043 58.998696 C 128.271586 58.998696 128.018557 58.901702 127.86674 58.707713 C 127.714922 58.501073 127.681185 58.218524 127.769745 57.860067 L 139.632573 13.204722 C 139.763305 12.626973 140.117545 12.340207 140.691077 12.340207 L 153.890739 12.340207 C 154.476923 12.340207 154.83538 12.626973 154.961894 13.204722 L 166.761465 57.860067 C 166.807854 57.957061 166.828939 58.070924 166.828939 58.201656 C 166.828939 58.733016 166.516871 58.998696 165.901167 58.998696 Z M 143.896107 42.741603 C 143.896107 42.960895 144.031055 43.066323 144.30517 43.066323 L 149.968795 43.066323 C 150.272429 43.066323 150.403161 42.910289 150.356772 42.594003 L 147.362599 28.728031 C 147.320428 28.555128 147.227651 28.470786 147.088485 28.470786 C 146.957754 28.470786 146.869194 28.555128 146.827022 28.728031 L 143.896107 42.594003 Z M 192.958368 13.335453 C 192.958368 13.031819 193.046928 12.791442 193.219831 12.618539 C 193.405385 12.432984 193.645762 12.340207 193.953614 12.340207 L 204.41635 12.340207 C 204.732636 12.340207 204.973013 12.432984 205.150133 12.618539 C 205.33147 12.791442 205.424247 13.031819 205.424247 13.335453 L 205.424247 58.007667 C 205.424247 58.311301 205.33147 58.555896 205.150133 58.74145 C 204.973013 58.914353 204.732636 58.998696 204.41635 58.998696 L 193.430688 58.998696 C 192.844505 58.998696 192.464962 58.754102 192.292059 58.26913 L 183.031209 36.542401 C 182.989038 36.356846 182.896261 36.264069 182.752878 36.264069 C 182.626363 36.264069 182.558889 36.377932 182.558889 36.605658 L 182.68962 58.007667 C 182.68962 58.311301 182.596843 58.555896 182.411289 58.74145 C 182.238386 58.914353 182.002226 58.998696 181.698591 58.998696 L 171.231638 58.998696 C 170.91957 58.998696 170.666541 58.914353 170.485204 58.74145 C 170.312301 58.555896 170.223741 58.311301 170.223741 58.007667 L 170.223741 13.335453 C 170.223741 13.031819 170.312301 12.791442 170.485204 12.618539 C 170.666541 12.432984 170.91957 12.340207 171.231638 12.340207 L 182.154043 12.340207 C 182.740226 12.340207 183.119769 12.584802 183.292672 13.07399 L 192.553522 34.80072 C 192.595693 34.986274 192.684253 35.0664 192.810768 35.045314 C 192.954151 35.011577 193.025842 34.885063 193.025842 34.669988 Z M 239.081279 59.53849 C 235.791906 59.53849 232.898945 58.893267 230.406613 57.598604 C 227.922714 56.308158 225.991262 54.4737 224.612256 52.099447 C 223.233249 49.725195 222.545855 46.958748 222.545855 43.800107 L 222.545855 27.327939 C 222.545855 24.228338 223.233249 21.499845 224.612256 19.142462 C 225.991262 16.789295 227.922714 14.975923 230.406613 13.706562 C 232.898945 12.437202 235.791906 11.80463 239.081279 11.80463 C 242.366435 11.80463 245.242528 12.428767 247.70534 13.677042 C 250.180804 14.912665 252.103822 16.66278 253.482828 18.931604 C 254.861835 21.200428 255.549229 23.848795 255.549229 26.872488 C 255.549229 27.176122 255.456452 27.433368 255.270898 27.640008 C 255.097995 27.833997 254.8534 27.930991 254.541332 27.930991 L 244.011121 28.403311 C 243.34903 28.403311 243.020092 28.09546 243.020092 27.475539 L 243.020092 26.745973 C 243.020092 25.45131 242.661635 24.426544 241.94472 23.667458 C 241.240457 22.908372 240.283165 22.528829 239.081279 22.528829 C 237.887827 22.528829 236.922101 22.921023 236.184101 23.701195 C 235.4461 24.481367 235.074992 25.497699 235.074992 26.745973 L 235.074992 44.597147 C 235.074992 45.845422 235.4461 46.857536 236.184101 47.641925 C 236.922101 48.409446 237.887827 48.797423 239.081279 48.797423 C 240.283165 48.797423 241.240457 48.422097 241.94472 47.671445 C 242.661635 46.912359 243.020092 45.887593 243.020092 44.597147 L 243.020092 43.800107 C 243.020092 43.180186 243.34903 42.872335 244.011121 42.872335 L 254.541332 43.327786 C 254.8534 43.327786 255.097995 43.420563 255.270898 43.606118 C 255.456452 43.779021 255.549229 44.023615 255.549229 44.335684 C 255.549229 47.350942 254.861835 50.016178 253.482828 52.327173 C 252.103822 54.638168 250.168153 56.417803 247.671603 57.666078 C 245.187705 58.914353 242.324263 59.53849 239.081279 59.53849 Z M 275.471021 59.669222 C 272.139476 59.669222 269.204344 58.998696 266.665623 57.666078 C 264.135336 56.329243 262.182798 54.452614 260.808009 52.03619 C 259.429002 49.615549 258.737391 46.806931 258.737391 43.606118 L 258.737391 27.737002 C 258.737391 24.53619 259.429002 21.736006 260.808009 19.340667 C 262.182798 16.941112 264.135336 15.085568 266.665623 13.774036 C 269.204344 12.462504 272.139476 11.80463 275.471021 11.80463 C 278.810999 11.80463 281.758783 12.462504 284.305939 13.774036 C 286.865746 15.085568 288.835152 16.941112 290.214158 19.340667 C 291.593165 21.736006 292.280559 24.53619 292.280559 27.737002 L 292.280559 43.606118 C 292.280559 46.806931 291.580513 49.615549 290.180421 52.03619 C 288.780329 54.452614 286.810923 56.329243 284.272202 57.666078 C 281.746132 58.998696 278.810999 59.669222 275.471021 59.669222 Z M 275.471021 48.940806 C 276.761467 48.940806 277.794667 48.498006 278.579056 47.608188 C 279.359228 46.718371 279.751422 45.53757 279.751422 44.061569 L 279.751422 27.395414 C 279.751422 25.932064 279.359228 24.751264 278.579056 23.861446 C 277.794667 22.975846 276.761467 22.528829 275.471021 22.528829 C 274.23118 22.528829 273.223282 22.975846 272.443111 23.861446 C 271.662939 24.751264 271.270745 25.932064 271.270745 27.395414 L 271.270745 44.061569 C 271.270745 45.53757 271.662939 46.718371 272.443111 47.608188 C 273.223282 48.498006 274.23118 48.940806 275.471021 48.940806 Z M 321.998778 13.006516 C 322.226504 12.563716 322.627132 12.340207 323.200664 12.340207 L 333.600143 12.340207 C 333.916429 12.340207 334.161023 12.432984 334.333926 12.618539 C 334.51948 12.791442 334.60804 13.031819 334.60804 13.335453 L 334.60804 58.007667 C 334.60804 58.311301 334.51948 58.555896 334.333926 58.74145 C 334.161023 58.914353 333.916429 58.998696 333.600143 58.998696 L 323.069933 58.998696 C 322.757864 58.998696 322.51327 58.914353 322.340367 58.74145 C 322.167464 58.555896 322.078904 58.311301 322.078904 58.007667 L 322.078904 32.409599 C 322.078904 32.224044 322.019864 32.110181 321.901784 32.063793 C 321.792138 32.021621 321.695143 32.093313 321.606583 32.278867 L 317.34305 39.342585 C 317.073153 39.785385 316.668307 40.008893 316.136947 40.008893 L 314.395266 40.008893 C 313.863906 40.008893 313.467494 39.785385 313.210248 39.342585 L 308.946715 32.194524 C 308.849721 32.021621 308.744292 31.958364 308.634646 32.000536 C 308.529218 32.042707 308.474395 32.15657 308.474395 32.342124 L 308.474395 58.007667 C 308.474395 58.311301 308.381618 58.555896 308.196063 58.74145 C 308.02316 58.914353 307.778566 58.998696 307.46228 58.998696 L 296.936287 58.998696 C 296.632653 58.998696 296.388058 58.914353 296.202504 58.74145 C 296.029601 58.555896 295.941041 58.311301 295.941041 58.007667 L 295.941041 13.335453 C 295.941041 13.031819 296.029601 12.791442 296.202504 12.618539 C 296.388058 12.432984 296.632653 12.340207 296.936287 12.340207 L 307.335766 12.340207 C 307.867126 12.340207 308.267755 12.563716 308.537652 13.006516 L 315.065792 24.076521 C 315.162786 24.207252 315.263998 24.270509 315.373644 24.270509 C 315.483289 24.270509 315.559198 24.207252 315.601369 24.076521 Z M 364.659413 13.006516 C 364.887139 12.563716 365.287768 12.340207 365.8613 12.340207 L 376.260778 12.340207 C 376.577064 12.340207 376.821659 12.432984 376.994562 12.618539 C 377.175899 12.791442 377.268676 13.031819 377.268676 13.335453 L 377.268676 58.007667 C 377.268676 58.311301 377.175899 58.555896 376.994562 58.74145 C 376.821659 58.914353 376.577064 58.998696 376.260778 58.998696 L 365.730568 58.998696 C 365.4185 58.998696 365.173905 58.914353 365.001002 58.74145 C 364.823882 58.555896 364.739539 58.311301 364.739539 58.007667 L 364.739539 32.409599 C 364.739539 32.224044 364.680499 32.110181 364.558202 32.063793 C 364.452773 32.021621 364.351562 32.093313 364.267219 32.278867 L 360.003686 39.342585 C 359.733788 39.785385 359.328943 40.008893 358.797582 40.008893 L 357.055902 40.008893 C 356.524541 40.008893 356.12813 39.785385 355.870884 39.342585 L 351.607351 32.194524 C 351.506139 32.021621 351.404928 31.958364 351.295282 32.000536 C 351.185636 32.042707 351.13503 32.15657 351.13503 32.342124 L 351.13503 58.007667 C 351.13503 58.311301 351.042253 58.555896 350.856699 58.74145 C 350.683796 58.914353 350.439202 58.998696 350.122916 58.998696 L 339.596923 58.998696 C 339.289071 58.998696 339.048694 58.914353 338.863139 58.74145 C 338.690237 58.555896 338.601676 58.311301 338.601676 58.007667 L 338.601676 13.335453 C 338.601676 13.031819 338.690237 12.791442 338.863139 12.618539 C 339.048694 12.432984 339.289071 12.340207 339.596923 12.340207 L 349.992184 12.340207 C 350.527762 12.340207 350.92839 12.563716 351.198288 13.006516 L 357.726428 24.076521 C 357.823422 24.207252 357.924633 24.270509 358.034279 24.270509 C 358.143925 24.270509 358.219834 24.207252 358.262005 24.076521 Z M 397.586879 59.53849 C 394.339678 59.53849 391.488888 58.893267 389.026075 57.598604 C 386.563263 56.308158 384.652896 54.486351 383.294976 52.133184 C 381.941272 49.775801 381.262312 47.043091 381.262312 43.930838 L 381.262312 13.335453 C 381.262312 13.031819 381.350872 12.791442 381.523775 12.618539 C 381.705112 12.432984 381.949707 12.340207 382.253341 12.340207 L 392.783551 12.340207 C 393.099837 12.340207 393.344432 12.432984 393.517335 12.618539 C 393.702889 12.791442 393.791449 13.031819 393.791449 13.335453 L 393.791449 44.53389 C 393.791449 45.824336 394.137255 46.857536 394.820432 47.641925 C 395.512044 48.409446 396.435599 48.797423 397.586879 48.797423 C 398.704422 48.797423 399.615326 48.409446 400.319589 47.641925 C 401.036503 46.857536 401.394961 45.824336 401.394961 44.53389 L 401.394961 13.335453 C 401.394961 13.031819 401.479304 12.791442 401.652207 12.618539 C 401.837761 12.432984 402.082355 12.340207 402.38599 12.340207 L 412.9162 12.340207 C 413.232486 12.340207 413.472863 12.432984 413.649983 12.618539 C 413.83132 12.791442 413.924098 13.031819 413.924098 13.335453 L 413.924098 43.930838 C 413.924098 47.043091 413.245137 49.775801 411.891434 52.133184 C 410.533513 54.486351 408.61893 56.308158 406.147683 57.598604 C 403.68487 58.893267 400.829863 59.53849 397.586879 59.53849 Z M 450.111416 12.340207 C 450.427702 12.340207 450.672296 12.432984 450.845199 12.618539 C 451.030754 12.791442 451.119314 13.031819 451.119314 13.335453 L 451.119314 22.073377 C 451.119314 22.377012 451.030754 22.621606 450.845199 22.80716 C 450.672296 22.980063 450.427702 23.064406 450.111416 23.064406 L 440.656578 23.064406 C 440.386681 23.064406 440.251732 23.203572 440.251732 23.473469 L 440.251732 58.007667 C 440.251732 58.311301 440.158955 58.555896 439.9734 58.74145 C 439.800497 58.914353 439.56012 58.998696 439.256486 58.998696 L 428.726275 58.998696 C 428.414207 58.998696 428.165395 58.914353 427.979841 58.74145 C 427.806938 58.555896 427.718378 58.311301 427.718378 58.007667 L 427.718378 23.473469 C 427.718378 23.203572 427.587646 23.064406 427.326183 23.064406 L 418.052682 23.064406 C 417.736396 23.064406 417.491802 22.980063 417.318899 22.80716 C 417.145996 22.621606 417.057436 22.377012 417.057436 22.073377 L 417.057436 13.335453 C 417.057436 13.031819 417.145996 12.791442 417.318899 12.618539 C 417.491802 12.432984 417.736396 12.340207 418.052682 12.340207 Z M 484.717305 22.073377 C 484.717305 22.377012 484.624528 22.621606 484.443191 22.80716 C 484.266071 22.980063 484.025694 23.064406 483.709408 23.064406 L 467.452315 23.064406 C 467.178201 23.064406 467.043252 23.203572 467.043252 23.473469 L 467.043252 29.740146 C 467.043252 29.997392 467.178201 30.128123 467.452315 30.128123 L 476.839679 30.128123 C 477.155965 30.128123 477.400559 30.220901 477.573462 30.406455 C 477.759017 30.579358 477.851794 30.823952 477.851794 31.140238 L 477.851794 39.798036 C 477.851794 40.110105 477.759017 40.358916 477.573462 40.544471 C 477.400559 40.717374 477.155965 40.805934 476.839679 40.805934 L 467.452315 40.805934 C 467.178201 40.805934 467.043252 40.936665 467.043252 41.193911 L 467.043252 47.869651 C 467.043252 48.139548 467.178201 48.274497 467.452315 48.274497 L 483.709408 48.274497 C 484.025694 48.274497 484.266071 48.363057 484.443191 48.53596 C 484.624528 48.708863 484.717305 48.953457 484.717305 49.269743 L 484.717305 58.007667 C 484.717305 58.311301 484.624528 58.555896 484.443191 58.74145 C 484.266071 58.914353 484.025694 58.998696 483.709408 58.998696 L 455.522013 58.998696 C 455.205727 58.998696 454.956915 58.914353 454.771361 58.74145 C 454.598458 58.555896 454.514115 58.311301 454.514115 58.007667 L 454.514115 13.335453 C 454.514115 13.031819 454.598458 12.791442 454.771361 12.618539 C 454.956915 12.432984 455.205727 12.340207 455.522013 12.340207 L 483.709408 12.340207 C 484.025694 12.340207 484.266071 12.432984 484.443191 12.618539 C 484.624528 12.791442 484.717305 13.031819 484.717305 13.335453 Z M 509.708105 58.998696 C 509.134573 58.998696 508.75503 58.733016 508.569476 58.201656 L 502.90585 41.408985 C 502.863679 41.18126 502.711862 41.067397 502.450399 41.067397 L 501.244295 41.067397 C 500.974398 41.067397 500.83945 41.202345 500.83945 41.472243 L 500.83945 58.007667 C 500.83945 58.311301 500.746672 58.555896 500.561118 58.74145 C 500.388215 58.914353 500.147838 58.998696 499.844203 58.998696 L 489.31821 58.998696 C 489.001924 58.998696 488.753113 58.914353 488.567558 58.74145 C 488.394656 58.555896 488.306096 58.311301 488.306096 58.007667 L 488.306096 13.335453 C 488.306096 13.031819 488.394656 12.791442 488.567558 12.618539 C 488.753113 12.432984 489.001924 12.340207 489.31821 12.340207 L 506.907921 12.340207 C 509.750276 12.340207 512.263694 12.964345 514.443958 14.212619 C 516.624222 15.448243 518.31108 17.189924 519.504532 19.437662 C 520.710635 21.681183 521.313687 24.270509 521.313687 27.201425 C 521.313687 29.913049 520.744372 32.30417 519.601526 34.374788 C 518.475549 36.436972 516.885685 38.043704 514.836153 39.194985 C 514.66325 39.33415 514.595775 39.515488 514.637947 39.730562 L 521.507676 57.860067 C 521.549847 58.00345 521.570933 58.159484 521.570933 58.332387 C 521.570933 58.779404 521.284167 58.998696 520.710635 58.998696 Z M 501.244295 23.064406 C 500.974398 23.064406 500.83945 23.203572 500.83945 23.473469 L 500.83945 31.140238 C 500.83945 31.397484 500.974398 31.528215 501.244295 31.528215 L 504.778263 31.528215 C 505.971715 31.528215 506.945875 31.15289 507.704961 30.406455 C 508.468264 29.647369 508.847807 28.622603 508.847807 27.327939 C 508.847807 26.007973 508.476699 24.966338 507.738698 24.207252 C 507.013349 23.443949 506.026537 23.064406 504.778263 23.064406 Z M 501.244295 23.064406 " stroke="#5ca474" stroke-width="2.333334" stroke-opacity="1" stroke-miterlimit="4"/></svg>